<?xml version="1.0" encoding="utf-8"?>
<!-- Generator: Adobe Illustrator 16.0.3, SVG Export Plug-In . SVG Version: 6.00 Build 0)  -->
<!DOCTYPE svg PUBLIC "-//W3C//DTD SVG 1.1//EN" "http://www.w3.org/Graphics/SVG/1.1/DTD/svg11.dtd">
<svg version="1.1" id="Calque_1" xmlns="http://www.w3.org/2000/svg" xmlns:xlink="http://www.w3.org/1999/xlink" x="0px" y="0px"
	 width="425.2px" height="425.2px" viewBox="0 0 425.2 425.2" enable-background="new 0 0 425.2 425.2" xml:space="preserve">
<polygon fill="#FFFFFF" points="222.914,284.959 328.235,195.63 313.157,152.831 216.32,188.176 215.211,284.883 215.184,287.321 
	"/>
<path fill="#E8E8E8" d="M215.184,287.321l0.025-2.125l1.111-97.02L85.874,141.099c-1.442-0.644-2.992-1.013-4.615-1.013
	c-7.49,0-13.563,7.471-13.563,16.688c0,2.314,0.384,4.519,1.076,6.522c0.001,0.003,0.001,0.005,0.002,0.007
	c2.701,9.211,138.193,121.246,138.193,121.246L215.184,287.321z"/>
<path fill="#FFFFFF" d="M344.561,141.099c1.442-0.644,2.992-1.013,4.615-1.013c7.49,0,13.563,7.471,13.563,16.688
	c0,2.314-0.384,4.519-1.076,6.522c-0.001,0.003-0.001,0.005-0.002,0.008c-2.701,9.21-49.198,45.63-49.198,45.63l-15.077-50.347
	L344.561,141.099z"/>
</svg>
