<?xml version="1.0" encoding="utf-8"?>
<!-- Generator: Adobe Illustrator 18.0.0, SVG Export Plug-In . SVG Version: 6.00 Build 0)  -->
<!DOCTYPE svg PUBLIC "-//W3C//DTD SVG 1.1//EN" "http://www.w3.org/Graphics/SVG/1.1/DTD/svg11.dtd">
<svg version="1.1" id="Calque_1" xmlns="http://www.w3.org/2000/svg" xmlns:xlink="http://www.w3.org/1999/xlink" x="0px" y="0px"
	 viewBox="0 0 300 300" enable-background="new 0 0 300 300" xml:space="preserve">
<g>
	<path fill="#47659F" d="M122.7,241.8c0-31.1,0-62.1,0.1-93.2c0-2.3-0.6-3-2.9-2.9c-3.8,0.2-7.7,0-11.5,0.1c-1.5,0-2.1-0.3-2.1-1.9
		c0.1-8.3,0.1-16.5,0-24.8c0-1.6,0.4-2,2-2c3.8,0.1,7.7-0.2,11.5,0.1c2.6,0.2,3-0.8,2.9-3.1c-0.4-9.6,1.2-19,5.1-27.9
		c7.1-16.3,20-24.9,37.2-27.3c8.9-1.3,17.8-0.3,26.7,1c1.5,0.2,2.2,0.8,2,2.4c-0.6,8.9-1,17.8-1.4,26.7c-0.1,1.6-0.7,1.6-1.9,1.3
		c-4.4-1.1-8.9-1.8-13.4-1.2c-8.4,1.1-13.5,6.7-15,15.7c-0.6,3.5-0.4,7-0.6,10.4c-0.1,1.6,0.6,1.8,1.9,1.8c7-0.1,14,0,20.9-0.1
		c1.8,0,2.2,0.5,2.2,2.3c-0.1,8-0.1,16,0,24c0,1.9-0.4,2.5-2.4,2.4c-6.6-0.1-13.3,0-19.9-0.1c-2.1,0-2.7,0.6-2.7,2.7
		c0.1,30.1,0.1,60.3,0,90.4c0,1-0.1,2-0.2,3C148.6,241.8,135.6,241.8,122.7,241.8z"/>
</g>
<g>
	<g>
		<path fill="#3A547C" d="M191.7,59.9c-8.9-1.4-17.7-2.3-26.7-1c-5.5,0.8-10.5,2.2-15,4.2v178.7c3.8,0,7.7,0,11.5,0
			c0.1-1,0.2-2,0.2-3c0-30.1,0-60.3,0-90.4c0-2.1,0.5-2.7,2.7-2.7c6.6,0.1,13.3,0,19.9,0.1c2,0,2.4-0.6,2.4-2.4c-0.1-8-0.1-16,0-24
			c0-1.8-0.4-2.3-2.2-2.3c-7,0.1-14,0-20.9,0.1c-1.3,0-2-0.2-1.9-1.8c0.1-3.5,0-7,0.6-10.4c1.5-9,6.6-14.6,15-15.7
			c4.5-0.6,9,0,13.4,1.2c1.2,0.3,1.8,0.3,1.9-1.3c0.4-8.9,0.9-17.8,1.4-26.7C193.8,60.7,193.2,60.1,191.7,59.9z"/>
	</g>
</g>
<path fill="#47649F" d="M25,150C25,81,81,25,150,25V0C67.2,0,0,67.2,0,150s67.2,150,150,150v-25C81,275,25,219,25,150z"/>
<path fill="#405D9C" d="M150,0v25c69,0,125,56,125,125s-56,125-125,125v25c82.8,0,150-67.2,150-150S232.8,0,150,0z"/>
<path fill="#3A547C" d="M150,0v25c69,0,125,56,125,125s-56,125-125,125v25c82.8,0,150-67.2,150-150S232.8,0,150,0z"/>
<rect x="103" y="61.8" fill="none" width="176" height="234"/>
<path opacity="0.25" fill="#33AC63" enable-background="new    " d="M25,150C25,81,81,25,150,25V0C67.2,0,0,67.2,0,150
	s67.2,150,150,150v-25C81,275,25,219,25,150z"/>
<path opacity="0.25" fill="#33AC63" enable-background="new    " d="M150,0v25c69,0,125,56,125,125s-56,125-125,125v25
	c82.8,0,150-67.2,150-150S232.8,0,150,0z"/>
<g opacity="0.25">
	<path fill="#34AD65" d="M122.9,193.7c0-15,0-30,0-45.1c0-2.1-0.5-2.8-2.7-2.7c-3.7,0.2-7.5,0-11.2,0.1c-1.8,0.1-2.5-0.4-2.5-2.4
		c0.1-8,0.1-16,0-24c0-1.7,0.4-2.2,2.1-2.2c4,0.1,8-0.1,12,0.1c1.8,0.1,2.3-0.5,2.2-2.3c-0.3-9.4,0.9-18.5,4.3-27.3
		c6.6-16.9,19.4-26.1,37-28.8c8.9-1.4,17.8-0.8,26.6,1.2c2,0.4,2.8,1.2,2.7,3.4c-0.6,8.3-0.9,16.7-1.3,25.1c-0.1,1.5-0.3,2-2,1.5
		c-3.1-0.9-6.4-1.3-9.7-1.3c-10.1,0-16.3,5-18.2,14.9c-0.8,4-0.6,8-0.7,12c0,1.7,0.9,1.6,2.1,1.6c6.7,0,13.5,0.1,20.2-0.1
		c2,0,2.8,0.4,2.8,2.6c-0.1,7.8-0.1,15.7,0,23.5c0,1.9-0.5,2.5-2.4,2.5c-6.6-0.1-13.1,0.1-19.7-0.1c-2.4-0.1-2.8,0.7-2.8,2.9
		c0.1,29.9,0,59.7,0.1,89.6c0,2.4-0.5,3.2-3.1,3.2c-11-0.2-22-0.1-33,0c-2.2,0-2.9-0.5-2.9-2.8C122.9,223.8,122.9,208.8,122.9,193.7
		z"/>
</g>
</svg>
