<?xml version="1.0" encoding="utf-8"?>
<!-- Generator: Adobe Illustrator 16.0.3, SVG Export Plug-In . SVG Version: 6.00 Build 0)  -->
<!DOCTYPE svg PUBLIC "-//W3C//DTD SVG 1.1//EN" "http://www.w3.org/Graphics/SVG/1.1/DTD/svg11.dtd">
<svg version="1.1" id="Calque_1" xmlns="http://www.w3.org/2000/svg" xmlns:xlink="http://www.w3.org/1999/xlink" x="0px" y="0px"
	 width="425.2px" height="425.2px" viewBox="0 0 425.2 425.2" enable-background="new 0 0 425.2 425.2" xml:space="preserve">
<polygon fill="#FFFFFF" points="286.473,206.007 197.144,100.686 154.344,115.764 189.689,212.601 286.397,213.709 288.834,213.737 
	"/>
<path fill="#E8E8E8" d="M288.834,213.737l-2.125-0.025l-97.02-1.112l-47.077,130.448c-0.644,1.442-1.013,2.992-1.013,4.615
	c0,7.49,7.471,13.563,16.688,13.563c2.314,0,4.519-0.384,6.522-1.076c0.002-0.001,0.005-0.001,0.007-0.002
	c9.21-2.701,121.246-138.193,121.246-138.193L288.834,213.737z"/>
<path fill="#FFFFFF" d="M142.613,84.36c-0.644-1.442-1.013-2.992-1.013-4.615c0-7.49,7.471-13.563,16.688-13.563
	c2.314,0,4.519,0.384,6.522,1.076c0.003,0.001,0.005,0.001,0.008,0.002c9.21,2.701,45.63,49.198,45.63,49.198l-50.347,15.077
	L142.613,84.36z"/>
</svg>
