<?xml version="1.0" encoding="utf-8"?>
<!-- Generator: Adobe Illustrator 16.0.3, SVG Export Plug-In . SVG Version: 6.00 Build 0)  -->
<!DOCTYPE svg PUBLIC "-//W3C//DTD SVG 1.1//EN" "http://www.w3.org/Graphics/SVG/1.1/DTD/svg11.dtd">
<svg version="1.1" id="Calque_1" xmlns="http://www.w3.org/2000/svg" xmlns:xlink="http://www.w3.org/1999/xlink" x="0px" y="0px"
	 width="425.2px" height="425.2px" viewBox="0 0 425.2 425.2" enable-background="new 0 0 425.2 425.2" xml:space="preserve">
<path fill="#575756" d="M346.75,288.029c0,6.887-3.84,12.471-18.75,12.471H95.875c-14.911,0-19.125-5.584-19.125-12.471V153.971
	c0-6.888,6.305-12.471,21.215-12.471h229.16c14.91,0,19.625,5.583,19.625,12.471V288.029z"/>
<path fill="#FFFFFF" d="M342.35,286.5c0,6.627-5.373,12-12,12h-96c-6.627,0-12-5.373-12-12v-129c0-6.627,5.373-12,12-12h96
	c6.627,0,12,5.373,12,12V286.5z"/>
<path fill="#DADADA" d="M339.85,284.5c0,6.627-5.373,12-12,12h-96c-6.627,0-12-5.373-12-12v-129c0-6.627,5.373-12,12-12h96
	c6.627,0,12,5.373,12,12V284.5z"/>
<path fill="#FFFFFF" d="M335.85,282.5c0,6.627-5.373,12-12,12h-96c-6.627,0-12-5.373-12-12v-129c0-6.627,5.373-12,12-12h96
	c6.627,0,12,5.373,12,12V282.5z"/>
<path fill="#FFFFFF" d="M212.6,0C95.245,0,0,95.245,0,212.6c0,117.355,95.245,212.599,212.6,212.599
	c117.355,0,212.599-95.244,212.599-212.599C425.199,95.245,329.955,0,212.6,0z M212.6,389.766
	c-97.796,0-177.167-79.369-177.167-177.166c0-97.796,79.371-177.167,177.167-177.167c97.796,0,177.166,79.371,177.166,177.167
	C389.766,310.396,310.396,389.766,212.6,389.766z"/>
<path fill="#DADADA" d="M332.6,280.5c0,6.627-5.373,12-12,12h-96c-6.627,0-12-5.373-12-12v-129c0-6.627,5.373-12,12-12h96
	c6.627,0,12,5.373,12,12V280.5z"/>
<path fill="#FFFFFF" d="M82.85,286.5c0,6.627,5.373,12,12,12h96c6.627,0,12-5.373,12-12v-129c0-6.627-5.373-12-12-12h-96
	c-6.627,0-12,5.373-12,12V286.5z"/>
<path fill="#DADADA" d="M85.35,284.5c0,6.627,5.373,12,12,12h96c6.627,0,12-5.373,12-12v-129c0-6.627-5.373-12-12-12h-96
	c-6.627,0-12,5.373-12,12V284.5z"/>
<path fill="#FFFFFF" d="M89.35,282.5c0,6.627,5.373,12,12,12h96c6.627,0,12-5.373,12-12v-129c0-6.627-5.373-12-12-12h-96
	c-6.627,0-12,5.373-12,12V282.5z"/>
<path fill="#DADADA" d="M92.6,280.5c0,6.627,5.373,12,12,12h96c6.627,0,12-5.373,12-12v-129c0-6.627-5.373-12-12-12h-96
	c-6.627,0-12,5.373-12,12V280.5z"/>
<path fill="#303030" d="M198.395,161.355c0,1.104-0.757,2-1.69,2h-70.369c-0.934,0-1.69-0.896-1.69-2l0,0c0-1.104,0.757-2,1.69-2
	h70.369C197.638,159.355,198.395,160.25,198.395,161.355L198.395,161.355z"/>
<path fill="#303030" d="M196.75,184.26c0,1.104-0.896,2-2,2H111.5c-1.104,0-2-0.896-2-2l0,0c0-1.104,0.896-2,2-2h83.25
	C195.854,182.26,196.75,183.155,196.75,184.26L196.75,184.26z"/>
<path fill="#303030" d="M196.75,205.52c0,1.104-0.896,2-2,2H111.5c-1.104,0-2-0.896-2-2l0,0c0-1.104,0.896-2,2-2h83.25
	C195.854,203.52,196.75,204.415,196.75,205.52L196.75,205.52z"/>
<path fill="#303030" d="M196.75,226.779c0,1.104-0.896,2-2,2H111.5c-1.104,0-2-0.896-2-2l0,0c0-1.104,0.896-2,2-2h83.25
	C195.854,224.779,196.75,225.675,196.75,226.779L196.75,226.779z"/>
<path fill="#303030" d="M196.75,248.039c0,1.104-0.896,2-2,2H111.5c-1.104,0-2-0.896-2-2l0,0c0-1.104,0.896-2,2-2h83.25
	C195.854,246.039,196.75,246.935,196.75,248.039L196.75,248.039z"/>
<path fill="#303030" d="M196.75,269.299c0,1.104-0.896,2-2,2H111.5c-1.104,0-2-0.896-2-2l0,0c0-1.104,0.896-2,2-2h83.25
	C195.854,267.299,196.75,268.194,196.75,269.299L196.75,269.299z"/>
<path fill="#303030" d="M319.119,269.299c0,1.104-0.896,2-2,2h-83.25c-1.104,0-2-0.896-2-2l0,0c0-1.104,0.896-2,2-2h83.25
	C318.224,267.299,319.119,268.194,319.119,269.299L319.119,269.299z"/>
<path fill="#303030" d="M319.119,248.039c0,1.104-0.896,2-2,2h-83.25c-1.104,0-2-0.896-2-2l0,0c0-1.104,0.896-2,2-2h83.25
	C318.224,246.039,319.119,246.935,319.119,248.039L319.119,248.039z"/>
<path fill="#303030" d="M319.119,226.779c0,1.104-0.896,2-2,2h-83.25c-1.104,0-2-0.896-2-2l0,0c0-1.104,0.896-2,2-2h83.25
	C318.224,224.779,319.119,225.675,319.119,226.779L319.119,226.779z"/>
<path fill="#303030" d="M319.119,205.52c0,1.104-0.896,2-2,2h-83.25c-1.104,0-2-0.896-2-2l0,0c0-1.104,0.896-2,2-2h83.25
	C318.224,203.52,319.119,204.415,319.119,205.52L319.119,205.52z"/>
<path fill="#303030" d="M319.119,184.26c0,1.104-0.896,2-2,2h-83.25c-1.104,0-2-0.896-2-2l0,0c0-1.104,0.896-2,2-2h83.25
	C318.224,182.26,319.119,183.155,319.119,184.26L319.119,184.26z"/>
<path fill="#303030" d="M320.764,161.355c0,1.104-0.895,2-2,2h-83.25c-1.104,0-2-0.896-2-2l0,0c0-1.104,0.896-2,2-2h83.25
	C319.869,159.355,320.764,160.25,320.764,161.355L320.764,161.355z"/>
</svg>
