<?xml version="1.0" encoding="utf-8"?>
<!-- Generator: Adobe Illustrator 18.0.0, SVG Export Plug-In . SVG Version: 6.00 Build 0)  -->
<!DOCTYPE svg PUBLIC "-//W3C//DTD SVG 1.1//EN" "http://www.w3.org/Graphics/SVG/1.1/DTD/svg11.dtd">
<svg version="1.1" id="Calque_1" xmlns="http://www.w3.org/2000/svg" xmlns:xlink="http://www.w3.org/1999/xlink" x="0px" y="0px"
	 viewBox="0 0 300 300" enable-background="new 0 0 300 300" xml:space="preserve">
<path fill="#EA823C" d="M0,150c0,82.8,67.2,150,150,150v-25c-69,0-125-56-125-125S81,25,150,25V0C67.2,0,0,67.2,0,150z"/>
<path fill="#405D9C" d="M150,0v25c69,0,125,56,125,125s-56,125-125,125v25c82.8,0,150-67.2,150-150S232.8,0,150,0z"/>
<path fill="#CE7434" d="M150,0v25c69,0,125,56,125,125s-56,125-125,125v25c82.8,0,150-67.2,150-150S232.8,0,150,0z"/>
<path opacity="0.15" fill="#33AC63" d="M25,150C25,81,81,25,150,25V0C67.2,0,0,67.2,0,150s67.2,150,150,150v-25
	C81,275,25,219,25,150z"/>
<path opacity="0.15" fill="#33AC63" d="M150,0v25c69,0,125,56,125,125s-56,125-125,125v25c82.8,0,150-67.2,150-150S232.8,0,150,0z"
	/>
<path fill="#EA823C" d="M199,75.7h-49.9H99c-6.6,0-12,5.4-12,12v124.7c0,6.6,5.4,12,12,12h50.8H199c6.6,0,12-5.4,12-12V87.7
	C211,81.1,205.6,75.7,199,75.7z"/>
<path fill="#CE7434" d="M232.1,214.3L232.1,214.3c5.8-2.7,8.4-9.7,5.7-15.5l-45.3-98.1c-6-2.2-9.5-3.5-15.5-5.7l0,0
	c-2.2,6-3.5,9.5-5.7,15.5l45.3,98.1C219.3,214.4,226.3,217,232.1,214.3z"/>
<path opacity="0.15" fill="#33AC63" d="M236.9,198.8l-26.8-58.1v-53c0-6.6-5.4-12-12-12h-49.9H98.1c-6.6,0-12,5.4-12,12v124.7
	c0,6.6,5.4,12,12,12h50.8h49.2c6.6,0,12-5.4,12-12v-16l5.6,12.2c2.7,5.8,9.7,8.4,15.5,5.7h0C237,211.6,239.6,204.6,236.9,198.8z"/>
</svg>
