<?xml version="1.0" encoding="utf-8"?>
<!-- Generator: Adobe Illustrator 16.0.3, SVG Export Plug-In . SVG Version: 6.00 Build 0)  -->
<!DOCTYPE svg PUBLIC "-//W3C//DTD SVG 1.1//EN" "http://www.w3.org/Graphics/SVG/1.1/DTD/svg11.dtd">
<svg version="1.1" id="Calque_1" xmlns="http://www.w3.org/2000/svg" xmlns:xlink="http://www.w3.org/1999/xlink" x="0px" y="0px"
	 width="425.2px" height="425.2px" viewBox="0 0 425.2 425.2" enable-background="new 0 0 425.2 425.2" xml:space="preserve">
<g>
	<path fill="#E6E6E6" d="M240.875,256.885c9.49-1.045,18.58-3.377,27.186-10.295c-7.158-2.977-13.995-5.066-18.338-11.1
		c-3.699-5.148-5.71-9.168,6.516-7.882c-9.732-5.389-16.328-10.215-18.74-18.58c-0.805-2.896-3.217-6.756,2.734-7.721
		c3.459-0.563,1.93-2.654,1.045-4.423c-1.447-3.057-3.537-5.952-4.102-9.169c-1.045-5.952-2.977-13.834,2.252-17.212
		c4.021-2.654,7.561,4.826,11.341,7.721c10.375,8.124,21.957,13.351,34.745,16.167c5.631,1.206,8.285,1.045,9.009-6.193
		c2.332-22.601,23.403-32.333,42.708-20.188c2.734,1.769,4.986,3.056,8.363,1.85c2.654-0.885,6.113-3.941,8.285-0.885
		c2.572,3.539-3.299,5.309-3.379,8.928c1.932,0.643,4.021,1.287,7.398,2.413c-8.768,5.47-9.49,13.512-10.535,21.636
		c-6.836,53.405-61.607,82.358-110.188,58.312C235.809,256.402,239.911,258.415,240.875,256.885z"/>
	<path fill="#E6E6E6" d="M240.875,256.885c-1.287,1.127-2.574,2.253-3.859,3.379c-1.77-0.563-4.987-1.449-4.104-2.735
		C234.683,255.196,238.141,256.805,240.875,256.885z"/>
</g>
<path fill="#FFFFFF" d="M212.6,0C95.245,0,0,95.245,0,212.6c0,117.355,95.245,212.6,212.6,212.6c117.355,0,212.6-95.244,212.6-212.6
	C425.2,95.245,329.956,0,212.6,0z M212.6,389.766c-97.796,0-177.167-79.369-177.167-177.166
	c0-97.796,79.371-177.167,177.167-177.167c97.797,0,177.166,79.371,177.166,177.167C389.766,310.396,310.397,389.766,212.6,389.766z
	"/>
<path fill="#F6F6F6" d="M72.846,184.584l37.891,91.475c2.005,4.844,7.606,7.162,12.447,5.155l36.09-14.949l37.265-15.436
	c4.841-2.005,7.163-7.604,5.156-12.448l-37.889-91.473c-2.005-4.843-7.608-7.163-12.448-5.157l-36.752,15.222l-36.604,15.163
	C73.161,174.141,70.841,179.744,72.846,184.584z"/>
<path fill="#999999" d="M105.475,274.973l3.422-85.728c-3.436-3.734-5.454-5.905-8.89-9.638l0,0
	c-3.733,3.437-5.907,5.454-9.639,8.891l-3.423,85.728c-0.218,5.075,3.816,9.419,8.891,9.638l0,0
	C100.912,284.082,105.256,280.049,105.475,274.973z"/>
<g>
	<path fill="#999999" d="M195.4,308.079c0-30.611,0-61.125,0.099-91.738c0-2.264-0.591-2.952-2.855-2.854
		c-3.74,0.196-7.579,0-11.319,0.098c-1.477,0-2.067-0.295-2.067-1.87c0.098-8.17,0.098-16.241,0-24.411
		c0-1.575,0.394-1.969,1.969-1.969c3.741,0.098,7.579-0.197,11.319,0.098c2.559,0.197,2.953-0.787,2.854-3.051
		c-0.393-9.449,1.182-18.701,5.021-27.461c6.988-16.044,19.685-24.509,36.617-26.871c8.762-1.28,17.521-0.296,26.279,0.984
		c1.477,0.196,2.165,0.787,1.969,2.362c-0.591,8.76-0.982,17.521-1.379,26.281c-0.097,1.575-0.688,1.575-1.871,1.28
		c-4.33-1.083-8.759-1.772-13.188-1.181c-8.268,1.083-13.288,6.595-14.766,15.454c-0.59,3.445-0.395,6.89-0.59,10.237
		c-0.1,1.575,0.59,1.771,1.869,1.771c6.889-0.099,13.78,0,20.57-0.099c1.771,0,2.168,0.492,2.168,2.264
		c-0.098,7.875-0.098,15.749,0,23.624c0,1.87-0.396,2.461-2.364,2.361c-6.495-0.099-13.09,0-19.587-0.099
		c-2.066,0-2.656,0.59-2.656,2.657c0.098,29.628,0.098,59.353,0,88.979c0,0.986-0.1,1.97-0.197,2.955
		C220.895,308.079,208.098,308.079,195.4,308.079z"/>
</g>
</svg>
