<?xml version="1.0" encoding="utf-8"?>
<!-- Generator: Adobe Illustrator 16.0.3, SVG Export Plug-In . SVG Version: 6.00 Build 0)  -->
<!DOCTYPE svg PUBLIC "-//W3C//DTD SVG 1.1//EN" "http://www.w3.org/Graphics/SVG/1.1/DTD/svg11.dtd">
<svg version="1.1" id="Calque_1" xmlns="http://www.w3.org/2000/svg" xmlns:xlink="http://www.w3.org/1999/xlink" x="0px" y="0px"
	 width="150px" height="150px" viewBox="0 0 150 150" enable-background="new 0 0 150 150" xml:space="preserve">
<polygon fill="#333333" points="75.002,85.313 104.284,115 113.914,105.234 84.631,75.553 115,44.766 105.373,35 75.002,65.789 
	75,65.787 75,85.313 "/>
<polygon fill="#494949" points="35,44.766 65.372,75.553 36.09,105.24 45.719,114.999 75,85.313 75,65.787 44.63,35 "/>
<path fill="#494949" d="M75,150v-12.5c-34.518,0-62.5-27.982-62.5-62.5c0-34.517,27.982-62.5,62.5-62.5V0C33.578,0,0,33.578,0,75
	S33.578,150,75,150z"/>
<path fill="#333333" d="M137.5,75c0,34.518-27.982,62.5-62.5,62.5V150c41.421,0,75-33.578,75-75c0-41.421-33.579-75-75-75v12.5
	C109.52,12.5,137.5,40.482,137.5,75z"/>
</svg>
