<?xml version="1.0" encoding="utf-8"?>
<!-- Generator: Adobe Illustrator 16.0.3, SVG Export Plug-In . SVG Version: 6.00 Build 0)  -->
<!DOCTYPE svg PUBLIC "-//W3C//DTD SVG 1.1//EN" "http://www.w3.org/Graphics/SVG/1.1/DTD/svg11.dtd">
<svg version="1.1" id="Calque_1" xmlns="http://www.w3.org/2000/svg" xmlns:xlink="http://www.w3.org/1999/xlink" x="0px" y="0px"
	 width="425.2px" height="425.2px" viewBox="0 0 425.2 425.2" enable-background="new 0 0 425.2 425.2" xml:space="preserve">
<polygon fill="#FFFFFF" points="143.961,221.4 233.291,326.721 276.09,311.643 240.745,214.806 144.038,213.698 141.6,213.67 "/>
<path fill="#E8E8E8" d="M141.6,213.67l2.125,0.025l97.02,1.111L287.822,84.36c0.644-1.442,1.013-2.992,1.013-4.615
	c0-7.49-7.471-13.563-16.688-13.563c-2.314,0-4.519,0.384-6.522,1.076c-0.003,0.001-0.005,0.001-0.007,0.002
	c-9.211,2.701-121.246,138.193-121.246,138.193L141.6,213.67z"/>
<path fill="#FFFFFF" d="M287.822,343.047c0.644,1.442,1.013,2.992,1.013,4.615c0,7.49-7.471,13.563-16.688,13.563
	c-2.314,0-4.519-0.384-6.522-1.076c-0.003-0.001-0.005-0.001-0.008-0.002c-9.21-2.701-45.63-49.198-45.63-49.198l50.347-15.077
	L287.822,343.047z"/>
</svg>
