<?xml version="1.0" encoding="utf-8"?>
<!-- Generator: Adobe Illustrator 16.0.3, SVG Export Plug-In . SVG Version: 6.00 Build 0)  -->
<!DOCTYPE svg PUBLIC "-//W3C//DTD SVG 1.1//EN" "http://www.w3.org/Graphics/SVG/1.1/DTD/svg11.dtd">
<svg version="1.1" id="Calque_1" xmlns="http://www.w3.org/2000/svg" xmlns:xlink="http://www.w3.org/1999/xlink" x="0px" y="0px"
	 width="425.2px" height="425.2px" viewBox="0 0 425.2 425.2" enable-background="new 0 0 425.2 425.2" xml:space="preserve">
<path fill="#FFFFFF" d="M212.599,0C95.182,0,0,95.182,0,212.599c0,117.416,95.182,212.599,212.599,212.599
	c117.413,0,212.599-95.183,212.599-212.599C425.198,95.185,330.012,0,212.599,0z M212.599,389.764
	c-97.847,0-177.166-79.32-177.166-177.165c0-97.844,79.319-177.166,177.166-177.166c97.851,0,177.165,79.319,177.165,177.166
	C389.764,310.443,310.444,389.764,212.599,389.764z"/>
<g>
	<path fill="#FFFFFF" d="M69.763,317.417c0,0,38.818,98.035,142.838,72.348V231.063c0,0-64.217,2.871-92.539,19.139
		C105.103,258.793,69.763,317.417,69.763,317.417z"/>
	<path fill="#FFFFFF" d="M305.141,250.202c-28.322-16.269-92.539-19.14-92.539-19.14v158.701
		c104.02,25.688,142.838-72.349,142.838-72.349S320.1,258.793,305.141,250.202z"/>
</g>
<path fill="#FFFFFF" d="M295.602,162.167c0,45.287-37.16,82-83,82s-83-36.711-83-82c0-24.231,10.639-46.008,27.554-61.02
	c14.697-13.044,34.134-20.98,55.446-20.98c37.994,0,70.025,25.222,79.878,59.643C294.514,146.917,295.602,154.416,295.602,162.167z"
	/>
<path fill="#FFFFFF" d="M293.045,142.236c0,0,13.955-17.236-13.045-40.236s-40-25-44.5-33.5l6,12c0,0-25-1-35-12c0,0-1.5,26-17,6.5
	c0,0-21.5,19-37.5,14.5c0,0,12.5,15.5,0,21.5s-16.5-3.5-16.5-3.5l5.682,22.5L219,122"/>
<path fill="#FFFFFF" d="M285.075,166.778c6.217-23.116-9.607-25.371-7.349-45.669c0,0-26.88-19.318-27.129-19.733
	c0,0-14.696,3.383-35.606-7.33c-20.158-10.325-32.962,29.111-52.587,24.906c-0.737-0.158-1.482-0.377-2.237-0.662
	c-20.913-7.895-28.26,52.434-28.26,52.434h-4.522c0,0-9.609-51.871,11.869-62.02c0,0-25.434-49.221,45.78-53.929
	c0,0,8.479-17.441,26.565-22.915c0,0,36.502,19.261,50.067,33.639c13.563,14.377,25.5,21.167,25.5,21.167s14.164,15.745,18.729,35
	c4.43,18.685,0.564,38.942-0.063,40.833c-1.563,4.708-4.846,18.516-6.5,20.5c-3.891,4.666-8.666,19.988-11.717,14.635
	C282.944,189.436,282.191,177.495,285.075,166.778z"/>
<path fill="#30302F" d="M280.375,138.067H238h-10.672h-29.455H193h-48.166c0,0-3.652,0.017-3.652,3.475v28.803
	c0.039,0.882,0.413,3.155,3.234,3.155h0.333h1.31h48.19c2.883,0,3.511-1.674,3.625-2.707v-29.168h29.455v29.515
	c0.172,1.021,0.908,2.36,3.588,2.36h50.565c1.063-0.148,2.538-0.833,2.538-3.5v-28.375
	C284.021,138.083,280.375,138.067,280.375,138.067z M194.332,169.957h-49.606V141.61H193v0.015h1.332V169.957z M280.478,169.957
	h-49.606v-28.332H238v-0.015h42.478V169.957z"/>
</svg>
