<?xml version="1.0" encoding="utf-8"?>
<!-- Generator: Adobe Illustrator 16.0.3, SVG Export Plug-In . SVG Version: 6.00 Build 0)  -->
<!DOCTYPE svg PUBLIC "-//W3C//DTD SVG 1.1//EN" "http://www.w3.org/Graphics/SVG/1.1/DTD/svg11.dtd">
<svg version="1.1" id="Calque_1" xmlns="http://www.w3.org/2000/svg" xmlns:xlink="http://www.w3.org/1999/xlink" x="0px" y="0px"
	 width="425.2px" height="425.2px" viewBox="0 0 425.2 425.2" enable-background="new 0 0 425.2 425.2" xml:space="preserve">
<path fill="#FFFFFF" d="M212.6,0C95.245,0,0,95.245,0,212.6c0,117.355,95.245,212.599,212.6,212.599
	c117.355,0,212.599-95.244,212.599-212.599C425.199,95.245,329.955,0,212.6,0z M212.6,389.766
	c-97.796,0-177.167-79.369-177.167-177.166c0-97.796,79.371-177.167,177.167-177.167c97.796,0,177.166,79.371,177.166,177.167
	C389.766,310.396,310.396,389.766,212.6,389.766z"/>
<polygon fill="#575756" points="333.524,147.578 369.193,163.688 328.643,170.417 "/>
<path fill="#575756" d="M240.53,144.807l42.675-6.511v18.563C283.205,156.859,245.626,155.876,240.53,144.807z"/>
<path fill="#FFFFFF" d="M240.53,144.807c0,0,47.135,20.835,128.663,18.882c0,0-8.281,138.035-99.363,154.964
	C269.83,318.652,217.602,308.887,240.53,144.807z"/>
<polygon fill="#575756" points="91.674,140.49 56.007,156.601 96.557,163.329 "/>
<path fill="#575756" d="M184.668,137.719l-42.675-6.511v18.563C141.993,149.771,179.573,148.788,184.668,137.719z"/>
<path fill="#FFFFFF" d="M184.668,137.719c0,0-47.135,20.835-128.662,18.882c0,0,8.28,138.035,99.362,154.964
	C155.369,311.564,207.598,301.799,184.668,137.719z"/>
<path fill-rule="evenodd" clip-rule="evenodd" fill="#303030" d="M104.993,262.603c0,0,36,8.793,74-16.271
	C178.993,246.332,154.326,299.269,104.993,262.603z"/>
<path fill-rule="evenodd" clip-rule="evenodd" fill="#303030" d="M319.48,283.504c0,0-27.155-25.218-72.551-21.843
	C246.93,261.661,294.262,227.449,319.48,283.504z"/>
</svg>
