<?xml version="1.0" encoding="utf-8"?>
<!-- Generator: Adobe Illustrator 16.0.3, SVG Export Plug-In . SVG Version: 6.00 Build 0)  -->
<!DOCTYPE svg PUBLIC "-//W3C//DTD SVG 1.1//EN" "http://www.w3.org/Graphics/SVG/1.1/DTD/svg11.dtd">
<svg version="1.1" id="Calque_1" xmlns="http://www.w3.org/2000/svg" xmlns:xlink="http://www.w3.org/1999/xlink" x="0px" y="0px"
	 width="425.2px" height="425.2px" viewBox="0 0 425.2 425.2" enable-background="new 0 0 425.2 425.2" xml:space="preserve">
<polygon fill="#FFFFFF" points="207.521,142.448 102.2,231.777 117.278,274.577 214.115,239.231 215.223,142.524 215.25,140.086 "/>
<path fill="#E8E8E8" d="M215.25,140.086l-0.025,2.125l-1.111,97.02l130.447,47.077c1.442,0.644,2.992,1.013,4.615,1.013
	c7.49,0,13.563-7.471,13.563-16.688c0-2.314-0.384-4.519-1.076-6.522c-0.001-0.003-0.001-0.005-0.002-0.007
	c-2.701-9.211-138.193-121.246-138.193-121.246L215.25,140.086z"/>
<path fill="#FFFFFF" d="M85.874,286.308c-1.442,0.644-2.992,1.013-4.615,1.013c-7.49,0-13.563-7.471-13.563-16.688
	c0-2.314,0.384-4.519,1.076-6.522c0.001-0.003,0.001-0.005,0.002-0.008c2.701-9.21,49.198-45.63,49.198-45.63l15.077,50.347
	L85.874,286.308z"/>
</svg>
