<?xml version="1.0" encoding="utf-8"?>
<!-- Generator: Adobe Illustrator 18.0.0, SVG Export Plug-In . SVG Version: 6.00 Build 0)  -->
<!DOCTYPE svg PUBLIC "-//W3C//DTD SVG 1.1//EN" "http://www.w3.org/Graphics/SVG/1.1/DTD/svg11.dtd">
<svg version="1.1" id="Calque_1" xmlns="http://www.w3.org/2000/svg" xmlns:xlink="http://www.w3.org/1999/xlink" x="0px" y="0px"
	 viewBox="0 0 300 300" enable-background="new 0 0 300 300" xml:space="preserve">
<path fill="#3DA9E1" d="M25,150C25,81,81,25,150,25V0C67.2,0,0,67.2,0,150s67.2,150,150,150v-25C81,275,25,219,25,150z"/>
<path fill="#405D9C" d="M150,0v25c69,0,125,56,125,125s-56,125-125,125v25c82.8,0,150-67.2,150-150S232.8,0,150,0z"/>
<path fill="#3A96BA" d="M150,0v25c69,0,125,56,125,125s-56,125-125,125v25c82.8,0,150-67.2,150-150S232.8,0,150,0z"/>
<g>
	<path fill="#3DA9E1" d="M81.9,196.1c11.8-1.3,23.1-4.2,33.8-12.8c-8.9-3.7-17.4-6.3-22.8-13.8c-4.6-6.4-7.1-11.4,8.1-9.8
		C88.9,153,80.7,147,77.7,136.6c-1-3.6-4-8.4,3.4-9.6c4.3-0.7,2.4-3.3,1.3-5.5c-1.8-3.8-4.4-7.4-5.1-11.4
		c-1.3-7.4-3.7-17.2,2.8-21.4c5-3.3,9.4,6,14.1,9.6c12.9,10.1,27.3,16.6,43.2,20.1c7,1.5,10.3,1.3,11.2-7.7
		c2.9-28.1,29.1-40.2,53.1-25.1c3.4,2.2,6.2,3.8,10.4,2.3c3.3-1.1,7.6-4.9,10.3-1.1c3.2,4.4-4.1,6.6-4.2,11.1c2.4,0.8,5,1.6,9.2,3
		c-10.9,6.8-11.8,16.8-13.1,26.9c-8.5,66.4-76.6,102.4-137,72.5C75.6,195.5,80.7,198,81.9,196.1z"/>
	<path fill="#3DA9E1" d="M81.9,196.1c-1.6,1.4-3.2,2.8-4.8,4.2c-2.2-0.7-6.2-1.8-5.1-3.4C74.2,194,78.5,196,81.9,196.1z"/>
</g>
<g>
	<path fill="#3A96BA" d="M219,96.9c0.1-4.6,7.4-6.8,4.2-11.1c-2.8-3.8-7,0-10.3,1.1c-4.2,1.4-7-0.2-10.4-2.3
		c-20.2-12.8-41.9-6.2-50,13v107.5c32.3-10.9,57.7-39.3,62.7-78.2c1.3-10.1,2.2-20.2,13.1-26.9C223.9,98.5,221.4,97.7,219,96.9z"/>
</g>
<path opacity="0.25" fill="#33AC63" d="M25,150C25,81,81,25,150,25V0C67.2,0,0,67.2,0,150s67.2,150,150,150v-25
	C81,275,25,219,25,150z"/>
<path opacity="0.25" fill="#33AC63" d="M150,0v25c69,0,125,56,125,125s-56,125-125,125v25c82.8,0,150-67.2,150-150S232.8,0,150,0z"
	/>
<g opacity="0.25">
	<path fill="#33AC63" d="M82.3,195.5c11.8-1.3,23.1-4.2,33.8-12.8c-8.9-3.7-17.4-6.3-22.8-13.8c-4.6-6.4-7.1-11.4,8.1-9.8
		c-12.1-6.8-20.3-12.8-23.3-23.2c-1-3.6-4-8.4,3.4-9.6c4.3-0.7,2.4-3.3,1.3-5.5c-1.8-3.8-4.4-7.4-5.1-11.4
		c-1.3-7.4-3.7-17.2,2.8-21.4c5-3.3,9.4,6,14.1,9.6c12.9,10.1,27.3,16.6,43.2,20.1c7,1.5,10.3,1.3,11.2-7.7
		c2.9-28.1,29.1-40.2,53.1-25.1c3.4,2.2,6.2,3.8,10.4,2.3c3.3-1.1,7.6-4.9,10.3-1.1c3.2,4.4-4.1,6.6-4.2,11.1c2.4,0.8,5,1.6,9.2,3
		c-10.9,6.8-11.8,16.8-13.1,26.9c-8.5,66.4-76.6,102.4-137,72.5C76.1,194.8,81.2,197.4,82.3,195.5z"/>
	<path fill="#33AC63" d="M82.3,195.5c-1.6,1.4-3.2,2.8-4.8,4.2c-2.2-0.7-6.2-1.8-5.1-3.4C74.7,193.4,78.9,195.3,82.3,195.5z"/>
</g>
</svg>
